<mxGraphModel dx="1018" dy="562" grid="1" gridSize="10" guides="1" tooltips="1" connect="1" arrows="1" fold="1" page="1" pageScale="1" pageWidth="827" pageHeight="1169" math="0" shadow="0"><root><mxCell id="0"/><mxCell id="1" parent="0"/><mxCell id="LGjuJKLWHA5Zvs9ILf4I-1" value="&lt;font style=&quot;font-size: 24px&quot;&gt;spring 整体流程&lt;/font&gt;" style="rounded=0;whiteSpace=wrap;html=1;fillColor=#e1d5e7;strokeColor=#9673a6;" vertex="1" parent="1"><mxGeometry x="280" width="240" height="40" as="geometry"/></mxCell><mxCell id="LGjuJKLWHA5Zvs9ILf4I-40" value="以ClassPathXmlApplicationContext使用为例" style="rounded=0;whiteSpace=wrap;html=1;" vertex="1" parent="1"><mxGeometry x="40" y="80" width="280" height="40" as="geometry"/></mxCell><mxCell id="LGjuJKLWHA5Zvs9ILf4I-49" style="edgeStyle=orthogonalEdgeStyle;rounded=0;orthogonalLoop=1;jettySize=auto;html=1;exitX=0.5;exitY=1;exitDx=0;exitDy=0;startArrow=none;startFill=0;entryX=0;entryY=0.5;entryDx=0;entryDy=0;" edge="1" parent="1" source="LGjuJKLWHA5Zvs9ILf4I-41" target="LGjuJKLWHA5Zvs9ILf4I-50"><mxGeometry relative="1" as="geometry"><mxPoint x="400" y="340" as="targetPoint"/></mxGeometry></mxCell><mxCell id="LGjuJKLWHA5Zvs9ILf4I-51" value="调用父类构造方法" style="edgeLabel;html=1;align=center;verticalAlign=middle;resizable=0;points=[];" vertex="1" connectable="0" parent="LGjuJKLWHA5Zvs9ILf4I-49"><mxGeometry x="-0.0667" y="-1" relative="1" as="geometry"><mxPoint as="offset"/></mxGeometry></mxCell><mxCell id="LGjuJKLWHA5Zvs9ILf4I-41" value="new ClassPathXmlAppliationContext()" style="rounded=0;whiteSpace=wrap;html=1;fillColor=#d5e8d4;strokeColor=#82b366;" vertex="1" parent="1"><mxGeometry x="40" y="280" width="240" height="40" as="geometry"/></mxCell><mxCell id="LGjuJKLWHA5Zvs9ILf4I-47" value="&lt;div style=&quot;background-color: #1d1d26 ; color: #c9c9d1&quot;&gt;&lt;pre style=&quot;font-family: &amp;quot;jetbrains mono&amp;quot; , monospace ; font-size: 9.8pt&quot;&gt;&lt;span style=&quot;color: #c7a65d&quot;&gt;ClassPathXmlApplicationContext&lt;/span&gt;&lt;/pre&gt;&lt;/div&gt;" style="text;whiteSpace=wrap;html=1;" vertex="1" parent="1"><mxGeometry x="40" y="220" width="260" height="60" as="geometry"/></mxCell><mxCell id="LGjuJKLWHA5Zvs9ILf4I-48" value="&lt;div style=&quot;background-color: #1d1d26 ; color: #c9c9d1&quot;&gt;&lt;pre style=&quot;font-family: &amp;quot;jetbrains mono&amp;quot; , monospace ; font-size: 9.8pt&quot;&gt;&lt;span style=&quot;color: #c7a65d&quot;&gt;AbstractApplicationContext&lt;/span&gt;&lt;/pre&gt;&lt;/div&gt;" style="text;whiteSpace=wrap;html=1;" vertex="1" parent="1"><mxGeometry x="400" y="220" width="230" height="60" as="geometry"/></mxCell><mxCell id="LGjuJKLWHA5Zvs9ILf4I-57" style="edgeStyle=orthogonalEdgeStyle;rounded=0;orthogonalLoop=1;jettySize=auto;html=1;exitX=0.5;exitY=1;exitDx=0;exitDy=0;entryX=0.5;entryY=0;entryDx=0;entryDy=0;startArrow=none;startFill=0;" edge="1" parent="1" source="LGjuJKLWHA5Zvs9ILf4I-50" target="LGjuJKLWHA5Zvs9ILf4I-53"><mxGeometry relative="1" as="geometry"/></mxCell><mxCell id="LGjuJKLWHA5Zvs9ILf4I-50" value="new AbstractApplicationContext()&lt;br&gt;" style="rounded=0;whiteSpace=wrap;html=1;fillColor=#d5e8d4;strokeColor=#82b366;" vertex="1" parent="1"><mxGeometry x="400" y="320" width="240" height="40" as="geometry"/></mxCell><mxCell id="LGjuJKLWHA5Zvs9ILf4I-55" value="" style="edgeStyle=orthogonalEdgeStyle;rounded=0;orthogonalLoop=1;jettySize=auto;html=1;startArrow=none;startFill=0;exitX=0.5;exitY=1;exitDx=0;exitDy=0;" edge="1" parent="1" source="LGjuJKLWHA5Zvs9ILf4I-53" target="LGjuJKLWHA5Zvs9ILf4I-54"><mxGeometry relative="1" as="geometry"/></mxCell><mxCell id="LGjuJKLWHA5Zvs9ILf4I-56" value="调用父类的方法" style="edgeLabel;html=1;align=center;verticalAlign=middle;resizable=0;points=[];" vertex="1" connectable="0" parent="LGjuJKLWHA5Zvs9ILf4I-55"><mxGeometry x="-0.01" y="2" relative="1" as="geometry"><mxPoint y="1" as="offset"/></mxGeometry></mxCell><mxCell id="LGjuJKLWHA5Zvs9ILf4I-53" value="设置配置文件路径，并获取环境对象解析配置文件占位符" style="rounded=0;whiteSpace=wrap;html=1;fillColor=#d5e8d4;strokeColor=#82b366;" vertex="1" parent="1"><mxGeometry x="40" y="400" width="240" height="40" as="geometry"/></mxCell><mxCell id="LGjuJKLWHA5Zvs9ILf4I-59" style="edgeStyle=orthogonalEdgeStyle;rounded=0;orthogonalLoop=1;jettySize=auto;html=1;exitX=0.5;exitY=1;exitDx=0;exitDy=0;entryX=0.5;entryY=0;entryDx=0;entryDy=0;startArrow=none;startFill=0;" edge="1" parent="1" source="LGjuJKLWHA5Zvs9ILf4I-54" target="LGjuJKLWHA5Zvs9ILf4I-58"><mxGeometry relative="1" as="geometry"/></mxCell><mxCell id="LGjuJKLWHA5Zvs9ILf4I-54" value="refresh()" style="rounded=0;whiteSpace=wrap;html=1;fillColor=#d5e8d4;strokeColor=#82b366;" vertex="1" parent="1"><mxGeometry x="400" y="480" width="240" height="40" as="geometry"/></mxCell><mxCell id="LGjuJKLWHA5Zvs9ILf4I-58" value="prepareRefresh()&lt;br&gt;" style="rounded=0;whiteSpace=wrap;html=1;fillColor=#d5e8d4;strokeColor=#82b366;" vertex="1" parent="1"><mxGeometry x="400" y="555" width="250" height="45" as="geometry"/></mxCell><mxCell id="LGjuJKLWHA5Zvs9ILf4I-61" value="&lt;span&gt;设置context启动时间&lt;/span&gt;&lt;br&gt;&lt;span&gt;设置context的关闭标志为false&lt;/span&gt;&lt;br&gt;&lt;span&gt;设置context的激活标志为true&lt;br&gt;调用模版方法initPropertySource()&lt;br&gt;validateRequiredProperties()&lt;br&gt;准备监听器和时间集合对象，默认为空&lt;br&gt;&lt;/span&gt;" style="shape=note;whiteSpace=wrap;html=1;backgroundOutline=1;darkOpacity=0.05;align=left;fillColor=#fff2cc;strokeColor=#d6b656;" vertex="1" parent="1"><mxGeometry x="120" y="520" width="240" height="100" as="geometry"/></mxCell><mxCell id="LGjuJKLWHA5Zvs9ILf4I-63" value="obtainBeanFactory()" style="rounded=0;whiteSpace=wrap;html=1;fillColor=#d5e8d4;strokeColor=#82b366;" vertex="1" parent="1"><mxGeometry x="400" y="640" width="250" height="45" as="geometry"/></mxCell></root></mxGraphModel>